<svg id="icons" xmlns="http://www.w3.org/2000/svg" viewBox="0 0 32 32"><defs><style>.cls-1{fill:#90a4ae;}.cls-2{fill:#a0b1ba;}.cls-3{fill:#aebcc4;}.cls-4{fill:#546e7a;}.cls-5{fill:#78909c;}</style></defs><title>Anchovies</title><path class="cls-1" d="M1,21.71S4,26,9,26V20.05C3.43,20.33,1,21.71,1,21.71Z"/><path class="cls-2" d="M11,20c-.71,0-1.37,0-2,.05V26c5,0,18-3,18-3V21S18,20,11,20Z"/><circle class="cls-3" cx="6" cy="22.5" r="1.5"/><circle class="cls-4" cx="6" cy="22.5" r="1"/><polygon class="cls-5" points="27 21 31 20 31 24 27 23 27 21"/><path class="cls-5" d="M14,26H11a1,1,0,0,1,0-2h3a1,1,0,0,1,0,2Z"/><path class="cls-1" d="M1,7.71S4,12,9,12V6.05C3.43,6.33,1,7.71,1,7.71Z"/><path class="cls-2" d="M11,6c-.71,0-1.37,0-2,.05V12c5,0,18-3,18-3V7S18,6,11,6Z"/><circle class="cls-3" cx="6" cy="8.5" r="1.5"/><circle class="cls-4" cx="6" cy="8.5" r="1"/><polygon class="cls-5" points="27 7 31 6 31 10 27 9 27 7"/><path class="cls-5" d="M14,12H11a1,1,0,0,1,0-2h3a1,1,0,0,1,0,2Z"/></svg>