<svg id="icons" xmlns="http://www.w3.org/2000/svg" viewBox="0 0 32 32"><defs><style>.cls-1{fill:#be3333;}.cls-2{fill:#e49898;}</style></defs><title>Bacon</title><path class="cls-1" d="M2,12.46V5L7.73,6.39a5.42,5.42,0,0,0,2.55,0l4.36-1.06a5.42,5.42,0,0,1,2.72,0l3.49,1a5.42,5.42,0,0,0,2.58.07L30,5v7.46l-6.57,1.41a5.42,5.42,0,0,1-2.58-.07l-3.49-1a5.42,5.42,0,0,0-2.72,0l-4.36,1.06a5.42,5.42,0,0,1-2.55,0Z"/><path class="cls-2" d="M23.43,9.21a5.42,5.42,0,0,1-2.58-.07l-3.49-1a5.42,5.42,0,0,0-2.72,0L10.27,9.19a5.42,5.42,0,0,1-2.55,0L2,7.8V8.9l5.73,1.39a5.42,5.42,0,0,0,2.55,0l4.36-1.06a5.42,5.42,0,0,1,2.72,0l3.49,1a5.42,5.42,0,0,0,2.58.07L30,8.9V7.8Z"/><path class="cls-2" d="M23.43,12.77a5.42,5.42,0,0,1-2.58-.07l-3.49-1a5.42,5.42,0,0,0-2.72,0l-4.36,1.06a5.42,5.42,0,0,1-2.55,0L2,11.36v1.1l5.73,1.39a5.42,5.42,0,0,0,2.55,0l4.36-1.06a5.42,5.42,0,0,1,2.72,0l3.49,1a5.42,5.42,0,0,0,2.58.07L30,12.46v-1.1Z"/><path class="cls-1" d="M2,25.46V18l5.73,1.39a5.42,5.42,0,0,0,2.55,0l4.36-1.06a5.42,5.42,0,0,1,2.72,0l3.49,1a5.42,5.42,0,0,0,2.58.07L30,18v7.46l-6.57,1.41a5.42,5.42,0,0,1-2.58-.07l-3.49-1a5.42,5.42,0,0,0-2.72,0l-4.36,1.06a5.42,5.42,0,0,1-2.55,0Z"/><path class="cls-2" d="M23.43,22.21a5.42,5.42,0,0,1-2.58-.07l-3.49-1a5.42,5.42,0,0,0-2.72,0l-4.36,1.06a5.42,5.42,0,0,1-2.55,0L2,20.8v1.1l5.73,1.39a5.42,5.42,0,0,0,2.55,0l4.36-1.06a5.42,5.42,0,0,1,2.72,0l3.49,1a5.42,5.42,0,0,0,2.58.07L30,21.9V20.8Z"/><path class="cls-2" d="M23.43,25.77a5.42,5.42,0,0,1-2.58-.07l-3.49-1a5.42,5.42,0,0,0-2.72,0l-4.36,1.06a5.42,5.42,0,0,1-2.55,0L2,24.36v1.1l5.73,1.39a5.42,5.42,0,0,0,2.55,0l4.36-1.06a5.42,5.42,0,0,1,2.72,0l3.49,1a5.42,5.42,0,0,0,2.58.07L30,25.46v-1.1Z"/></svg>