<svg id="icons" xmlns="http://www.w3.org/2000/svg" viewBox="0 0 32 32"><defs><style>.cls-1{fill:#ffe6c1;}.cls-2{fill:#dc562c;}.cls-3{fill:#8f2c0e;}</style></defs><title>BBQ Chiсken</title><path class="cls-1" d="M30.5,3H29V1.51a1.5,1.5,0,1,0-3,0V3L21,8l3,3,5-5h1.5a1.5,1.5,0,0,0,0-3Z"/><path class="cls-2" d="M26,12,20,6,5,14.13A9.5,9.5,0,1,0,17.87,27Z"/><path class="cls-3" d="M14.7,24a1,1,0,0,1-.71-.29L8.29,18a1,1,0,0,1,1.41-1.41l5.7,5.7A1,1,0,0,1,14.7,24Z"/><path class="cls-3" d="M19,19.8a1,1,0,0,1-.71-.29l-5.8-5.8a1,1,0,0,1,1.41-1.41l5.8,5.8A1,1,0,0,1,19,19.8Z"/><path class="cls-3" d="M10.6,28.2a1,1,0,0,1-.71-.29l-5.8-5.8a1,1,0,0,1,1.41-1.41l5.8,5.8a1,1,0,0,1-.71,1.71Z"/></svg>