<svg id="icons" xmlns="http://www.w3.org/2000/svg" viewBox="0 0 32 32"><defs><style>.cls-1{fill:#c85252;}.cls-2{fill:#e1a0a0;}</style></defs><title>Salami</title><ellipse class="cls-1" cx="16" cy="16" rx="14.9" ry="13.04" transform="translate(-6.63 16) rotate(-45)"/><path class="cls-2" d="M12,10.14a1,1,0,0,1-.71-1.71l1.14-1.14a1,1,0,0,1,1.41,1.41L12.71,9.85A1,1,0,0,1,12,10.14Z"/><path class="cls-2" d="M7.43,17.57a1,1,0,0,1-.71-1.71l1.14-1.14a1,1,0,1,1,1.41,1.41L8.14,17.28A1,1,0,0,1,7.43,17.57Z"/><path class="cls-2" d="M15.43,17.57a1,1,0,0,1-.71-1.71l1.14-1.14a1,1,0,1,1,1.41,1.41l-1.14,1.14A1,1,0,0,1,15.43,17.57Z"/><path class="cls-2" d="M23.43,17.57a1,1,0,0,1-.71-1.71l1.14-1.14a1,1,0,1,1,1.41,1.41l-1.14,1.14A1,1,0,0,1,23.43,17.57Z"/><path class="cls-2" d="M20,10.14a1,1,0,0,1-.71-1.71l1.14-1.14a1,1,0,0,1,1.41,1.41L20.71,9.85A1,1,0,0,1,20,10.14Z"/><path class="cls-2" d="M12,25a1,1,0,0,1-.71-1.71l1.14-1.14a1,1,0,0,1,1.41,1.41l-1.14,1.14A1,1,0,0,1,12,25Z"/><path class="cls-2" d="M20,25a1,1,0,0,1-.71-1.71l1.14-1.14a1,1,0,0,1,1.41,1.41l-1.14,1.14A1,1,0,0,1,20,25Z"/></svg>