<svg id="icons" xmlns="http://www.w3.org/2000/svg" viewBox="0 0 32 32"><defs><style>.cls-1{fill:#eea4a4;}.cls-2{fill:#f5c7c7;}</style></defs><title>Shrimps</title><path class="cls-1" d="M17.52,2.08A14,14,0,0,0,6.34,5.88a1,1,0,0,0,0,1.45l4.13,4.12a1,1,0,0,0,1.18.17,4.93,4.93,0,0,1,3.49-.49,5,5,0,1,1-6,5.73,1,1,0,0,0-1-.85H3a1,1,0,0,0-1,1.1,14,14,0,1,0,15.49-15Z"/><path class="cls-2" d="M24,4.56l-7.28,7.28a5,5,0,0,1,1.42,1.41l7.41-7.41A14.23,14.23,0,0,0,24,4.56Z"/><path class="cls-2" d="M13,11.12a4.94,4.94,0,0,1,2,0V2.06a14,14,0,0,0-2,.28Z"/><path class="cls-2" d="M5.81,25.6l5.44-5.44a5,5,0,0,1-1.42-1.41L4.54,24A14.06,14.06,0,0,0,5.81,25.6Z"/><path class="cls-2" d="M25.6,26.18l-7.42-7.42a5,5,0,0,1-1.42,1.41l7.3,7.3A14.07,14.07,0,0,0,25.6,26.18Z"/><path class="cls-2" d="M30,17c0-.3,0-.6,0-.91v-.81c0-.1,0-.19,0-.28H18.91a5.1,5.1,0,0,1,0,2Z"/><path class="cls-2" d="M15,30V20.89a4.75,4.75,0,0,1-2,0v8.77A14,14,0,0,0,15,30Z"/></svg>