<svg id="icons" xmlns="http://www.w3.org/2000/svg" viewBox="0 0 32 32"><defs><style>.cls-1{fill:#f59896;}.cls-2{fill:#f2b9b9;}.cls-3{fill:#fff;}.cls-4{fill:#ffccbc;}.cls-5{fill:#a17f7f;}</style></defs><title>Tuna</title><path class="cls-1" d="M16,0C9.23,0,2.63,5.74,3,15.1,3.33,22.6,7.58,29.94,13,32V21.39a3,3,0,1,1,6,0V32c5.42-2.06,9.67-9.4,10-16.9C29.37,5.74,22.77,0,16,0Z"/><path class="cls-2" d="M5.5,15A10.51,10.51,0,0,0,13,25.06V24A9.49,9.49,0,0,1,15.5,5.53v3a6.49,6.49,0,0,0-2.44,12.26,3,3,0,0,1,.36-.94A5.5,5.5,0,0,1,15.5,9.53V13h1V9.53a5.5,5.5,0,0,1,2.08,10.33,3,3,0,0,1,.36.94A6.49,6.49,0,0,0,16.5,8.53v-3A9.49,9.49,0,0,1,19,24v1.05A10.49,10.49,0,0,0,16.5,4.53V0L16,0l-.5,0v4.5A10.5,10.5,0,0,0,5.5,15Z"/><path class="cls-2" d="M19,27v1a14.46,14.46,0,0,0,6.94-3.65,22.28,22.28,0,0,0,1.75-3.8A13.53,13.53,0,0,1,19,27Z"/><path class="cls-2" d="M4.31,20.54a22.28,22.28,0,0,0,1.75,3.8A14.46,14.46,0,0,0,13,28V27A13.53,13.53,0,0,1,4.31,20.54Z"/><ellipse class="cls-3" cx="16" cy="14.85" rx="2" ry="2.04"/><path class="cls-4" d="M16,17.39a2.54,2.54,0,1,1,2.5-2.54A2.52,2.52,0,0,1,16,17.39Zm0-4.07a1.54,1.54,0,1,0,1.5,1.54A1.52,1.52,0,0,0,16,13.32Z"/><path class="cls-5" d="M16,0C9.23,0,2.63,5.74,3,15.1,3.33,22.6,7.58,29.94,13,32V30.89c-4.86-2.09-8.69-8.8-9-15.84A13.71,13.71,0,0,1,7.55,4.74,11.68,11.68,0,0,1,16,1a11.68,11.68,0,0,1,8.45,3.72A13.71,13.71,0,0,1,28,15.06c-.29,7-4.13,13.74-9,15.84V32c5.42-2.06,9.67-9.4,10-16.9C29.37,5.74,22.77,0,16,0Z"/></svg>